<?xml version="1.0" encoding="iso-8859-1"?>
<!-- Uploaded to: SVG Repo, www.svgrepo.com, Generator: SVG Repo Mixer Tools -->
<svg height="800px" width="800px" version="1.1" id="Layer_1" xmlns="http://www.w3.org/2000/svg" xmlns:xlink="http://www.w3.org/1999/xlink" 
	 viewBox="0 0 512.001 512.001" xml:space="preserve">
<g>
	<path style="fill:#F92629;" d="M176.136,387.269c-78.03,0-144.782,48.262-172.051,116.562h344.1
		C320.918,435.531,254.166,387.269,176.136,387.269z"/>
	<path style="fill:#F92629;" d="M262.871,71.354c0,49.169-38.329,89.366-86.736,92.392c-48.407-3.026-86.736-43.223-86.736-92.392
		c-29.332,41.89-19.152,99.629,22.739,128.961h127.992C282.023,170.983,292.204,113.245,262.871,71.354z"/>
</g>
<path style="fill:#F16831;" d="M300.333,233.816c-7.604-8.353-20.346-9.772-31.602-4.505c0-0.844-0.011-1.685-0.034-2.524
	c-1.337-49.972-42.267-79.178-92.562-79.178s-91.225,29.206-92.562,79.178c-0.023,0.839-0.034,1.68-0.034,2.524
	c-11.256-5.267-23.999-3.849-31.602,4.505c-9.742,10.702-7.361,28.735,5.318,40.278c7.645,6.959,19.91,9.871,28.684,8.813
	c9.485,41.061,46.251,71.682,90.195,71.682s80.71-30.621,90.195-71.682c8.774,1.058,21.04-1.854,28.684-8.813
	C307.695,262.551,310.077,244.518,300.333,233.816z"/>
<g>
	<path style="fill:#C41216;" d="M176.136,136.716c-50.293,0-91.192,40.104-92.531,90.073c1.313-25.902,22.73-46.498,48.957-46.498
		c18.98,0,35.429,10.794,43.574,26.572c8.145-15.778,24.595-26.572,43.574-26.572c26.227,0,47.644,20.597,48.957,46.498
		C267.327,176.82,226.429,136.716,176.136,136.716z"/>
	<path style="fill:#C41216;" d="M149.376,421.619c1.636,18.086,11.602,37.835,26.76,49.531
		c15.158-11.696,25.124-31.445,26.76-49.531c13.108,12.567,33.593,20.92,52.705,19.789c2.462-12.312,0.947-25.76-3.377-37.717
		l0.013-0.104c-23.215-10.48-48.976-16.318-76.103-16.318c-27.122,0-52.878,5.836-76.09,16.312v0.11
		c-4.323,11.957-5.839,25.405-3.377,37.717C115.784,442.539,136.268,434.186,149.376,421.619z"/>
</g>
<g>
	<path style="fill:#3B3734;" d="M176.135,368.205c-4.513,0-8.17-3.658-8.17-8.17l0.001-36.42c0-4.512,3.658-8.17,8.17-8.17
		c4.513,0,8.17,3.658,8.17,8.17l-0.001,36.42C184.306,364.547,180.647,368.205,176.135,368.205z"/>
	<path style="fill:#3B3734;" d="M147.385,253.822c-3.558,0-6.584-2.273-7.705-5.447h-11.359c-4.513,0-8.17-3.658-8.17-8.17
		s3.657-8.17,8.17-8.17h19.064c4.513,0,8.17,3.658,8.17,8.17v5.447C155.555,250.164,151.897,253.822,147.385,253.822z"/>
</g>
<path style="fill:#B54E25;" d="M196.732,270.634c-4.255-1.51-8.924,0.71-10.435,4.962c-1.524,4.288-5.607,7.169-10.159,7.169
	s-8.635-2.881-10.159-7.169c-1.511-4.253-6.183-6.471-10.435-4.962c-4.251,1.512-6.472,6.183-4.961,10.435
	c3.836,10.788,14.105,18.035,25.555,18.035s21.72-7.248,25.555-18.035C203.204,276.818,200.983,272.147,196.732,270.634z"/>
<path style="fill:#3B3734;" d="M204.887,253.822c-4.513,0-8.17-3.658-8.17-8.17v-5.447c0-4.512,3.657-8.17,8.17-8.17h19.064
	c4.513,0,8.17,3.658,8.17,8.17s-3.657,8.17-8.17,8.17h-11.359C211.471,251.549,208.445,253.822,204.887,253.822z"/>
<path style="fill:#C41216;" d="M505.525,51.416l-16.34-16.34c-0.214-0.209-0.402-0.38-0.599-0.541
	c-0.093-0.075-0.19-0.142-0.284-0.212c-0.119-0.089-0.235-0.181-0.359-0.264c-0.112-0.075-0.229-0.139-0.343-0.209
	c-0.113-0.069-0.225-0.139-0.343-0.203c-0.117-0.062-0.236-0.114-0.355-0.171c-0.123-0.059-0.244-0.12-0.37-0.172
	c-0.114-0.048-0.232-0.085-0.349-0.127c-0.135-0.049-0.268-0.1-0.406-0.143c-0.115-0.035-0.233-0.06-0.35-0.089
	c-0.142-0.036-0.282-0.075-0.426-0.103c-0.132-0.026-0.265-0.041-0.398-0.061c-0.131-0.02-0.26-0.044-0.393-0.057
	c-0.235-0.023-0.471-0.033-0.706-0.036c-0.033,0-0.064-0.005-0.097-0.005s-0.064,0.004-0.097,0.005
	c-0.235,0.003-0.472,0.013-0.706,0.036c-0.133,0.013-0.263,0.037-0.393,0.057c-0.133,0.02-0.266,0.035-0.398,0.061
	c-0.145,0.028-0.284,0.068-0.426,0.103c-0.117,0.029-0.234,0.054-0.35,0.089c-0.137,0.041-0.271,0.094-0.406,0.142
	c-0.117,0.042-0.234,0.081-0.35,0.127c-0.125,0.052-0.246,0.113-0.369,0.171c-0.119,0.057-0.24,0.109-0.356,0.171
	c-0.118,0.063-0.229,0.134-0.343,0.203c-0.114,0.069-0.231,0.134-0.343,0.209c-0.124,0.083-0.24,0.175-0.359,0.264
	c-0.095,0.071-0.192,0.136-0.284,0.212c-0.197,0.161-0.386,0.332-0.566,0.512c-0.033,0.029-16.373,16.37-16.373,16.37
	c-3.191,3.191-3.191,8.364,0,11.554c3.192,3.191,8.364,3.191,11.555,0l2.392-2.392v89.213c0,34.776-26.213,63.526-59.915,67.577
	V27.896l2.392,2.392c1.596,1.595,3.688,2.393,5.778,2.393s4.182-0.797,5.778-2.393c3.191-3.191,3.191-8.364,0-11.554l-16.34-16.34
	c-0.214-0.209-0.402-0.38-0.599-0.541c-0.093-0.075-0.19-0.142-0.284-0.212c-0.119-0.089-0.235-0.181-0.359-0.264
	c-0.112-0.075-0.229-0.139-0.343-0.209c-0.113-0.069-0.225-0.139-0.343-0.203c-0.117-0.062-0.236-0.114-0.355-0.171
	c-0.123-0.059-0.244-0.12-0.37-0.172c-0.114-0.048-0.232-0.085-0.349-0.127c-0.135-0.049-0.268-0.1-0.406-0.143
	c-0.115-0.035-0.233-0.06-0.35-0.089c-0.142-0.036-0.282-0.075-0.426-0.103c-0.132-0.026-0.265-0.041-0.398-0.061
	c-0.131-0.02-0.26-0.044-0.393-0.057c-0.235-0.023-0.471-0.033-0.706-0.036c-0.033,0-0.064-0.005-0.097-0.005
	s-0.064,0.004-0.097,0.005c-0.235,0.003-0.472,0.013-0.706,0.036c-0.133,0.013-0.263,0.037-0.393,0.057
	c-0.133,0.02-0.266,0.035-0.398,0.061c-0.145,0.028-0.284,0.068-0.426,0.103c-0.117,0.029-0.234,0.054-0.35,0.089
	c-0.137,0.041-0.271,0.094-0.406,0.142c-0.117,0.042-0.234,0.081-0.35,0.127c-0.125,0.052-0.246,0.113-0.369,0.171
	c-0.119,0.057-0.24,0.109-0.356,0.171c-0.118,0.063-0.229,0.134-0.343,0.203c-0.114,0.069-0.231,0.134-0.343,0.209
	c-0.124,0.083-0.24,0.175-0.359,0.264c-0.095,0.071-0.192,0.136-0.284,0.212c-0.197,0.161-0.386,0.332-0.566,0.512
	c-0.033,0.029-16.373,16.37-16.373,16.37c-3.191,3.191-3.191,8.364,0,11.554c3.192,3.191,8.364,3.191,11.555,0l2.392-2.392v189.469
	c-33.702-4.051-59.915-32.802-59.915-67.577V60.577l2.392,2.392c1.596,1.595,3.688,2.393,5.778,2.393
	c2.09,0,4.182-0.797,5.778-2.393c3.191-3.191,3.191-8.364,0-11.554l-16.34-16.34c-0.214-0.209-0.402-0.38-0.599-0.541
	c-0.093-0.075-0.19-0.142-0.284-0.212c-0.119-0.089-0.235-0.181-0.359-0.264c-0.112-0.075-0.229-0.139-0.343-0.209
	c-0.113-0.069-0.225-0.139-0.343-0.203c-0.117-0.062-0.236-0.114-0.355-0.171c-0.123-0.059-0.244-0.12-0.37-0.172
	c-0.114-0.048-0.232-0.085-0.349-0.127c-0.135-0.049-0.268-0.1-0.406-0.143c-0.115-0.035-0.233-0.06-0.35-0.089
	c-0.142-0.036-0.282-0.075-0.426-0.103c-0.132-0.026-0.265-0.041-0.398-0.061c-0.131-0.02-0.26-0.044-0.393-0.057
	c-0.235-0.023-0.471-0.033-0.706-0.036c-0.033,0-0.064-0.005-0.097-0.005s-0.064,0.004-0.097,0.005
	c-0.235,0.003-0.472,0.013-0.706,0.036c-0.133,0.013-0.263,0.037-0.393,0.057c-0.133,0.02-0.266,0.035-0.398,0.061
	c-0.145,0.028-0.284,0.068-0.426,0.103c-0.117,0.029-0.234,0.054-0.35,0.089c-0.137,0.041-0.271,0.094-0.406,0.142
	c-0.117,0.042-0.234,0.081-0.35,0.127c-0.125,0.052-0.246,0.113-0.369,0.171c-0.119,0.057-0.24,0.109-0.356,0.171
	c-0.118,0.063-0.229,0.134-0.343,0.203c-0.114,0.069-0.231,0.134-0.343,0.209c-0.124,0.083-0.24,0.175-0.359,0.264
	c-0.095,0.071-0.192,0.136-0.284,0.212c-0.197,0.161-0.386,0.332-0.566,0.512c-0.033,0.029-16.373,16.37-16.373,16.37
	c-3.191,3.191-3.191,8.364,0,11.554c3.192,3.191,8.364,3.191,11.555,0l2.392-2.392v89.213c0,43.796,33.523,79.899,76.255,84.024
	v270.019c0,4.512,3.657,8.17,8.17,8.17c4.513,0,8.17-3.658,8.17-8.17V233.812c42.732-4.123,76.255-40.228,76.255-84.024V60.577
	l2.392,2.392c1.596,1.595,3.688,2.393,5.778,2.393s4.182-0.797,5.778-2.393C508.714,59.78,508.714,54.605,505.525,51.416z"/>
</svg>